<svg width="48" height="48" viewBox="0 0 48 48" fill="none" xmlns="http://www.w3.org/2000/svg" aria-label="vegetable icon">
  <path d="M24 9.5C22.5 6.5 19.5 6 17.5 7.5C19.8 8.2 21.3 9.6 22 11.2" stroke="#FF4A1C" stroke-width="2" stroke-linecap="round" stroke-linejoin="round"/>
  <path d="M24 9.5C25.5 6.5 28.5 6 30.5 7.5C28.2 8.2 26.7 9.6 26 11.2" stroke="#FF4A1C" stroke-width="2" stroke-linecap="round" stroke-linejoin="round"/>
  <path d="M24 8V13" stroke="#FF4A1C" stroke-width="2" stroke-linecap="round"/>
  <path d="M16 19.8C16 15.5 19.4 12.5 24 12.5C28.6 12.5 32 15.5 32 19.8C32 27.5 27.5 35.2 24.8 39.1C24.4 39.8 23.6 39.8 23.2 39.1C20.5 35.2 16 27.5 16 19.8Z" stroke="#FF4A1C" stroke-width="2" stroke-linecap="round" stroke-linejoin="round"/>
  <path d="M20.5 21.5C22.5 22.7 25.5 22.7 27.5 21.5" stroke="#FF4A1C" stroke-width="2" stroke-linecap="round" stroke-linejoin="round"/>
  <path d="M22 29C23.4 29.8 25.2 29.8 26.5 29" stroke="#FF4A1C" stroke-width="2" stroke-linecap="round" stroke-linejoin="round"/>
</svg>
