<svg xmlns="http://www.w3.org/2000/svg" width="686" height="112" viewBox="0 0 686 112">
<defs><linearGradient id="grad" x1="0" y1="0" x2="1" y2="1"><stop offset="0" stop-color="#FF4B1F"/><stop offset="1" stop-color="#E85D2C"/></linearGradient><filter id="shadow" x="-10%" y="-10%" width="120%" height="140%"><feDropShadow dx="0" dy="6" stdDeviation="6" flood-color="#000" flood-opacity="0.18"/></filter></defs>
<rect x="2" y="2" width="682" height="108" rx="12" fill="url(#grad)" stroke="none" stroke-width="2" filter="url(#shadow)"/>
<g transform="translate(150 32.0)" fill="none" stroke="white" stroke-width="4" stroke-linecap="round" stroke-linejoin="round"><path d="M14 16h4l3-5h6l3 5h4a5 5 0 0 1 5 5v13a5 5 0 0 1-5 5H14a5 5 0 0 1-5-5V21a5 5 0 0 1 5-5Z"/><circle cx="24" cy="27" r="8"/></g>
<text x="240" y="69.0" font-family="Yu Gothic, Noto Sans CJK JP, sans-serif" font-size="36" font-weight="700" fill="white">伝票を撮影して更新</text>
</svg>