<svg xmlns="http://www.w3.org/2000/svg" width="200" height="100" viewBox="0 0 200 100"><path d="m89.7 58.7c0.498 0.4 1.38 0.6 2.63 0.6 0.661 0 1.24-0.135 1.72-0.4 0.484-0.262 0.877-0.607 1.18-1.01 0.305-0.391 0.53-0.836 0.685-1.31 0.15-0.469 0.223-0.908 0.223-1.3 0-0.695-0.232-1.28-0.695-1.74-0.467-0.473-1.28-0.697-2.46-0.697-0.703 0-1.31 0.129-1.83 0.4-0.514 0.27-0.94 0.604-1.28 1.02-0.343 0.416-0.602 0.871-0.771 1.38-0.174 0.504-0.256 0.994-0.256 1.46 0.061 0.661 0.34 1.18 0.849 1.59" fill="#EA5545"/><path d="m188 66.5c-0.214-0.303-0.474-0.445-0.755-0.445-0.201 0-0.369 0.072-0.513 0.203-0.267 0.318-0.58 0.688-0.967 1.14-0.404 0.438-0.849 0.904-1.34 1.4-0.485 0.494-0.985 0.992-1.54 1.49-0.542 0.494-1.09 0.93-1.63 1.32-0.538 0.393-1.07 0.719-1.58 0.955-0.52 0.258-0.989 0.369-1.41 0.369-0.306 0-0.583-0.045-0.844-0.152-0.256-0.102-0.493-0.27-0.702-0.531 0.329-0.855 0.566-1.68 0.735-2.48 0.16-0.791 0.236-1.49 0.236-2.12 0-1.2-0.236-2.2-0.739-3.01-0.493-0.809-1.12-1.47-1.86-1.97-0.746-0.484-1.56-0.84-2.44-1.04s-1.69-0.301-2.46-0.301c-1.78 0-3.38 0.289-4.84 0.869-1.45 0.584-2.74 1.36-3.88 2.32-1.13 0.959-2.1 2.04-2.92 3.24-0.822 1.2-1.5 2.42-2.03 3.65-0.242 0.576-0.463 1.14-0.659 1.72-1.07 0.586-2.2 1.2-3.38 1.83-1.33 0.688-2.67 1.38-4.02 2.04-1.34 0.668-2.55 1.25-3.64 1.72-0.15 0-0.249-0.031-0.27-0.092-0.02-0.07-0.031-0.188-0.031-0.34 0-0.186 0.217-0.518 0.646-1.02 0.441-0.494 0.979-1.08 1.63-1.75 0.662-0.668 1.37-1.4 2.15-2.2 0.774-0.783 1.5-1.57 2.18-2.36 0.671-0.779 1.27-1.53 1.76-2.26 0.505-0.715 0.806-1.35 0.91-1.88 0.057-0.285 0.1-0.566 0.124-0.818 0.02-0.254 0.021-0.502 0.021-0.723 0-1.06-0.241-1.81-0.734-2.24-0.498-0.445-1.2-0.654-2.1-0.654-0.559 0-1.21 0.08-1.92 0.254-0.726 0.172-1.47 0.418-2.26 0.717-0.786 0.291-1.6 0.646-2.44 1.06-0.836 0.406-1.65 0.863-2.44 1.36l-0.053 0.025h-0.036c-8e-3 0-0.017-0.023-0.017-0.061 0-0.066 9e-3 -0.146 0.053-0.252 0.051-0.105 0.088-0.209 0.14-0.334 0.045-0.127 0.093-0.242 0.13-0.352 0.047-0.09 0.073-0.18 0.073-0.234 0-0.354-0.143-0.662-0.396-0.926-0.271-0.273-0.602-0.492-1.02-0.68-0.412-0.184-0.882-0.328-1.4-0.42-0.528-0.09-1.05-0.141-1.58-0.141-0.501 0-0.982 0.059-1.43 0.172-0.455 0.102-0.854 0.283-1.2 0.506-0.341 0.232-0.613 0.525-0.815 0.883-0.2 0.363-0.305 0.787-0.305 1.28 0 0.535 0.097 0.992 0.29 1.35 0.188 0.354 0.422 0.662 0.702 0.914-0.233 0.492-0.466 0.969-0.679 1.42-0.201 0.096-0.417 0.199-0.649 0.332-2.7 2.09-4.97 3.81-6.82 5.18-1.85 1.38-3.36 2.45-4.57 3.27-1.2 0.814-2.14 1.39-2.8 1.71-0.661 0.336-1.16 0.496-1.51 0.496-0.42 0-0.726-0.076-0.91-0.225-0.177-0.16-0.265-0.361-0.265-0.605 0.019-0.182 0.285-0.547 0.801-1.06 0.512-0.533 1.16-1.16 1.9-1.91 0.754-0.768 1.58-1.59 2.45-2.51 0.859-0.916 1.66-1.85 2.42-2.82 0.735-0.969 1.35-1.93 1.85-2.88 0.493-0.955 0.745-1.86 0.745-2.7 0-0.645-0.163-1.21-0.485-1.69-0.324-0.486-0.741-0.883-1.25-1.2-0.521-0.316-1.11-0.566-1.76-0.727-0.648-0.162-1.32-0.24-1.99-0.24-0.964 0-1.94 0.172-2.91 0.518-0.963 0.352-1.91 0.805-2.84 1.36-0.935 0.551-1.83 1.18-2.68 1.87-0.87 0.697-1.69 1.38-2.43 2.08 0.057-0.129 0.113-0.322 0.193-0.584 0.067-0.266 0.128-0.551 0.203-0.848 0.05-0.301 0.097-0.584 0.142-0.848 0.052-0.268 0.061-0.461 0.061-0.59 0-0.617-0.185-1.09-0.542-1.41-0.365-0.314-0.952-0.479-1.75-0.479-0.517 0-1.02 0.242-1.47 0.732-0.455 0.48-0.863 1.05-1.22 1.7-0.362 0.662-0.687 1.33-0.964 2.01-0.284 0.678-0.509 1.2-0.666 1.58-0.347 1.08-0.771 2.19-1.24 3.34-0.192 0.09-0.385 0.236-0.577 0.426-0.306 0.365-0.679 0.795-1.14 1.26-0.449 0.475-0.942 0.967-1.48 1.49-0.533 0.506-1.11 1.02-1.71 1.52-0.605 0.506-1.22 0.951-1.84 1.34s-1.24 0.711-1.86 0.955c-0.621 0.24-1.21 0.371-1.77 0.371-0.498 0-0.89-0.09-1.16-0.264-0.273-0.176-0.406-0.537-0.406-1.1 0-0.506 0.094-1.09 0.283-1.69 0.194-0.619 0.427-1.24 0.694-1.89 0.274-0.629 0.564-1.26 0.866-1.86 0.302-0.611 0.575-1.17 0.816-1.69 0.2-0.426 0.372-0.809 0.514-1.11 0.139-0.309 0.285-0.625 0.439-0.949 0.15-0.311 0.315-0.66 0.503-1.03 0.177-0.367 0.406-0.818 0.691-1.36 0.102-0.184 0.17-0.367 0.196-0.553 0.03-0.186 0.056-0.369 0.079-0.549 0-0.787-0.279-1.44-0.834-1.93-0.557-0.508-1.22-0.764-1.98-0.764-0.467 0-0.921 0.123-1.36 0.377-0.441 0.24-0.839 0.656-1.18 1.23-0.359 0.762-0.703 1.48-1.02 2.16-0.285 0.576-0.55 1.15-0.803 1.7-0.252 0.557-0.431 0.975-0.529 1.24-0.285 0.727-0.624 1.48-1.03 2.27-0.346 0.67-0.683 1.4-1.01 2.13-0.414 0.277-0.883 0.596-1.43 0.951-0.778 0.498-1.64 1.03-2.59 1.59-0.943 0.555-1.93 1.07-2.95 1.55-1.02 0.469-2.04 0.857-3.07 1.17-1.03 0.311-2 0.459-2.91 0.459-0.845 0-1.52-0.205-2-0.611-0.498-0.41-0.746-0.98-0.746-1.7 0-0.498 0.127-1.09 0.376-1.79 0.252-0.707 0.602-1.43 1.03-2.18 0.433-0.75 0.925-1.49 1.46-2.23 0.542-0.727 1.11-1.38 1.68-1.96 0.572-0.58 1.15-1.05 1.72-1.41 0.572-0.354 1.09-0.539 1.56-0.539 0.398 0 0.652 0.121 0.755 0.389 0.102 0.258 0.15 0.574 0.15 0.939 0 0.334-4e-3 0.676-0.016 1.03-8e-3 0.361-0.01 0.641-0.01 0.824 0 0.309 0.054 0.518 0.165 0.645 0.11 0.127 0.369 0.188 0.771 0.188 0.749 0 1.37-0.227 1.88-0.68 0.506-0.453 0.918-1.02 1.24-1.7 0.319-0.674 0.552-1.41 0.688-2.18 0.148-0.771 0.222-1.47 0.222-2.11 0-0.52-0.086-0.955-0.263-1.33-0.169-0.367-0.402-0.664-0.691-0.881-0.293-0.221-0.636-0.371-1.03-0.477-0.397-0.104-0.815-0.148-1.26-0.148-1.31 0-2.61 0.289-3.89 0.861-1.28 0.574-2.51 1.34-3.69 2.28-1.18 0.943-2.27 2.03-3.28 3.24-1.01 1.22-1.89 2.45-2.64 3.71-0.684 1.14-1.22 2.27-1.63 3.37-0.233 0.143-0.478 0.273-0.738 0.428-0.799 0.455-1.69 0.932-2.68 1.44-0.994 0.506-2.01 0.975-3.04 1.4-1.04 0.441-2.08 0.795-3.14 1.07-1.06 0.271-2.06 0.416-2.98 0.416-0.869 0-1.56-0.17-2.09-0.51-0.525-0.338-0.836-0.807-0.935-1.4 2.74-1.03 5.02-2.06 6.85-3.07 1.82-1.03 3.28-2.02 4.37-3 1.09-0.975 1.85-1.94 2.3-2.88 0.443-0.957 0.665-1.86 0.665-2.72 0-1.46-0.412-2.61-1.24-3.44-0.826-0.818-2.08-1.23-3.75-1.23-1.59 0-3.09 0.234-4.49 0.713-1.4 0.475-2.69 1.09-3.86 1.88-1.17 0.781-2.23 1.69-3.16 2.7-0.937 1.02-1.73 2.07-2.38 3.14-0.646 1.08-1.14 2.13-1.48 3.2-0.346 1.06-0.517 2.02-0.517 2.91 0 0.498 0.034 0.988 0.098 1.46-0.644 0.43-1.39 0.83-2.24 1.2-1.16 0.492-2.46 0.734-3.94 0.734h-0.423c-0.143 0-0.293-0.014-0.456-0.025-0.805-0.062-1.57-0.477-2.3-1.24-0.727-0.754-1.39-1.68-1.98-2.76-0.594-1.08-1.1-2.22-1.51-3.43-0.415-1.2-0.711-2.29-0.893-3.26 1.29-0.227 2.62-0.596 4.01-1.1 1.38-0.521 2.72-1.16 4.04-1.9s2.55-1.58 3.71-2.55c1.15-0.961 2.17-2.01 3.04-3.15 0.868-1.14 1.56-2.36 2.07-3.67 0.516-1.3 0.772-2.68 0.772-4.12 0-2.14-0.432-4.02-1.29-5.63-0.853-1.6-2.01-2.94-3.46-4-1.46-1.06-3.12-1.85-5.01-2.39-1.89-0.536-3.86-0.802-5.92-0.802-2.1 0-4.08 0.217-5.96 0.66-1.88 0.443-3.6 1.03-5.19 1.76-1.58 0.732-3 1.58-4.28 2.54-1.27 0.956-2.35 1.95-3.22 2.98-0.873 1.02-1.55 2.06-2.03 3.08-0.476 1.04-0.715 1.99-0.715 2.88 0 0.945 0.254 1.68 0.76 2.2 0.501 0.52 1.26 0.785 2.27 0.785 0.743 0 1.37-0.178 1.88-0.527 0.499-0.346 0.963-0.803 1.38-1.35 0.415-0.559 0.816-1.2 1.2-1.91 0.384-0.73 0.809-1.46 1.28-2.23 0.472-0.752 1.04-1.5 1.69-2.22 0.652-0.719 1.46-1.36 2.42-1.92 0.958-0.547 2.1-1 3.42-1.36 1.32-0.347 2.9-0.524 4.73-0.524 1.64 0 3.04 0.197 4.22 0.59 1.18 0.394 2.15 0.913 2.9 1.57 0.755 0.661 1.31 1.43 1.67 2.32 0.352 0.891 0.531 1.82 0.531 2.81 0 1.37-0.338 2.8-1.02 4.26-0.676 1.46-1.6 2.78-2.77 3.98-1.17 1.19-2.54 2.18-4.1 2.95-1.56 0.77-3.22 1.16-4.98 1.16h-0.406c-0.131 0-0.259-0.012-0.376-0.031 0.522-1.14 1.02-2.24 1.51-3.32 0.483-1.08 0.914-2.08 1.27-2.99 0.365-0.896 0.658-1.71 0.879-2.41 0.221-0.684 0.331-1.25 0.331-1.64s-0.06-0.707-0.176-0.975c-0.13-0.25-0.267-0.445-0.428-0.586-0.162-0.127-0.339-0.217-0.545-0.279-0.203-0.042-0.372-0.067-0.51-0.067-0.531 0-1.11 0.3-1.77 0.911-0.655 0.6-1.35 1.41-2.09 2.42-0.735 1-1.5 2.16-2.27 3.48-0.779 1.3-1.55 2.65-2.31 4.06l-8.92 16.7c-0.229 0.436-0.395 0.896-0.519 1.39-0.117 0.5-0.181 0.984-0.181 1.46 0 0.322 0.048 0.678 0.132 1.05 0.097 0.367 0.251 0.711 0.478 1.02 0.217 0.307 0.534 0.559 0.931 0.771 0.409 0.203 0.931 0.307 1.58 0.307 0.782 0 1.51-0.285 2.18-0.861 0.662-0.58 1.29-1.33 1.87-2.26 0.586-0.945 1.12-2.01 1.6-3.2 0.484-1.17 0.946-2.38 1.39-3.59 0.444-1.22 0.853-2.4 1.23-3.54 0.383-1.14 0.765-2.14 1.12-2.98 0.648 2.14 1.38 4.18 2.21 6.1 0.825 1.93 1.74 3.61 2.75 5.05 1.01 1.44 2.13 2.59 3.36 3.43 1.24 0.846 2.58 1.27 4.02 1.27 1.77 0 3.66-0.455 5.64-1.38 1.01-0.465 2.03-1.07 3.06-1.81 0.165 0.268 0.346 0.514 0.54 0.744 0.65 0.811 1.45 1.46 2.39 1.93 0.941 0.477 2.01 0.705 3.22 0.705 1.41 0 2.85-0.193 4.3-0.57 1.45-0.385 2.85-0.863 4.19-1.43 1.34-0.578 2.62-1.21 3.81-1.9 0.616-0.361 1.19-0.707 1.74-1.05 0.076 0.387 0.174 0.77 0.309 1.13 0.285 0.764 0.692 1.42 1.24 1.99 0.548 0.561 1.22 1.02 2.01 1.35 0.798 0.332 1.71 0.494 2.74 0.494 1.35 0 2.72-0.209 4.12-0.627 1.39-0.43 2.74-0.951 4.04-1.59 1.3-0.641 2.52-1.35 3.66-2.12 0.511-0.338 0.989-0.678 1.44-1v0.061c0 1.81 0.465 3.14 1.4 4 0.938 0.855 2.23 1.28 3.86 1.28 1.15 0 2.29-0.221 3.42-0.678 1.13-0.455 2.26-1.06 3.37-1.8 0.618-0.418 1.22-0.859 1.82-1.34-0.928 1.79-1.89 3.61-2.88 5.44-1.13 2.07-2.24 4.14-3.33 6.19-0.161 0.379-0.339 0.768-0.53 1.16-0.188 0.402-0.379 0.816-0.56 1.25-0.177 0.412-0.327 0.846-0.456 1.27-0.112 0.441-0.176 0.867-0.176 1.27 0 0.85 0.236 1.42 0.707 1.72 0.481 0.291 1.08 0.439 1.8 0.439 0.562 0 1.08-0.105 1.53-0.322 0.451-0.213 0.854-0.496 1.21-0.869 0.354-0.354 0.666-0.777 0.935-1.25 0.274-0.473 0.515-0.979 0.711-1.51 0.064-0.184 0.202-0.541 0.428-1.05 0.221-0.514 0.479-1.12 0.771-1.8 0.292-0.678 0.6-1.4 0.936-2.15 0.333-0.764 0.65-1.49 0.953-2.18 0.302-0.693 0.564-1.29 0.805-1.8 0.232-0.518 0.401-0.867 0.497-1.05 0.081-0.146 0.227-0.404 0.42-0.787 0.186-0.379 0.392-0.82 0.641-1.3 0.237-0.484 0.52-0.986 0.802-1.54 0.298-0.543 0.57-1.08 0.832-1.58 0.261-0.525 0.505-0.98 0.723-1.4 0.225-0.418 0.39-0.729 0.518-0.957 0.401-0.727 0.887-1.51 1.46-2.37 0.574-0.855 1.21-1.7 1.91-2.54 0.691-0.842 1.44-1.66 2.24-2.44 0.799-0.783 1.61-1.48 2.45-2.08 0.831-0.613 1.68-1.1 2.54-1.46 0.863-0.369 1.69-0.549 2.5-0.549 0.462 0 0.783 0.07 0.992 0.217 0.201 0.139 0.301 0.332 0.301 0.588 0 0.416-0.237 0.945-0.723 1.6-0.478 0.652-1.1 1.38-1.83 2.18-0.75 0.791-1.54 1.63-2.41 2.52-0.87 0.889-1.69 1.75-2.45 2.63-0.771 0.863-1.42 1.69-1.97 2.5-0.547 0.797-0.859 1.51-0.936 2.14-0.023 0.1-0.032 0.191-0.032 0.264v0.223c0 1.01 0.417 1.8 1.25 2.38 0.851 0.578 2.02 0.863 3.56 0.863 1.64 0 3.17-0.26 4.6-0.807 1.43-0.525 2.9-1.28 4.4-2.26 1.51-0.975 3.11-2.15 4.8-3.51 0.512-0.418 1.06-0.844 1.62-1.29-0.334 0.738-0.626 1.41-0.907 2.01-0.374 0.82-0.739 1.58-1.1 2.28-0.22 0.416-0.366 0.795-0.444 1.13-0.069 0.344-0.101 0.625-0.101 0.854 0 0.555 0.14 0.959 0.405 1.2 0.272 0.252 0.657 0.371 1.12 0.371 0.401 0 0.839-0.094 1.32-0.277 0.486-0.184 0.956-0.438 1.42-0.771 0.475-0.32 0.896-0.727 1.29-1.2 0.39-0.475 0.714-1.01 0.947-1.62 0.306-0.678 0.667-1.48 1.09-2.44 0.431-0.939 0.864-1.9 1.32-2.86 0.467-0.971 0.896-1.89 1.32-2.78 0.414-0.889 0.791-1.61 1.12-2.19 0.252-0.461 0.639-0.883 1.22-1.28 0.555-0.404 1.16-0.754 1.77-1.07 0.633-0.309 1.22-0.551 1.77-0.73 0.554-0.193 0.955-0.295 1.19-0.295 0.144 0 0.231 0.062 0.279 0.166 0.032 0.105 0.053 0.205 0.053 0.309 0 0.43-0.139 0.902-0.425 1.42-0.285 0.518-0.639 1.07-1.07 1.69-0.436 0.594-0.913 1.25-1.44 1.94-0.516 0.693-1.02 1.42-1.51 2.18-0.486 0.762-0.916 1.56-1.3 2.41-0.387 0.844-0.645 1.72-0.782 2.63-0.023 0.084-0.035 0.209-0.035 0.369 0 1.07 0.35 1.95 1.04 2.63 0.699 0.678 1.75 1.01 3.14 1.01 0.586 0 1.28-0.129 2.06-0.4 0.806-0.297 1.65-0.66 2.56-1.11 0.905-0.445 1.85-0.967 2.83-1.54 0.976-0.578 1.94-1.17 2.91-1.78 0.331-0.207 0.659-0.416 0.981-0.625 0.047 1.05 0.273 1.96 0.686 2.72 0.462 0.84 1.04 1.53 1.72 2.04 0.679 0.533 1.38 0.906 2.13 1.14 0.75 0.219 1.4 0.338 1.97 0.338 1.5 0 2.9-0.193 4.22-0.57 1.33-0.385 2.55-0.906 3.69-1.58 1.14-0.682 2.18-1.5 3.1-2.45 0.941-0.938 1.75-1.99 2.49-3.15 0.498 0.375 1 0.641 1.49 0.807 0.494 0.16 1.01 0.246 1.52 0.246 0.771 0 1.53-0.217 2.3-0.658 0.773-0.42 1.5-0.953 2.22-1.56 0.696-0.631 1.37-1.29 2-1.99 0.623-0.703 1.18-1.32 1.66-1.86 0.844-0.76 1.42-1.49 1.74-2.19 0.313-0.707 0.47-1.31 0.47-1.86 2e-3 -0.538-0.115-0.954-0.338-1.26m-137 6.14c0.231-0.578 0.52-1.18 0.862-1.81 0.34-0.623 0.731-1.26 1.16-1.9 0.436-0.635 0.929-1.22 1.49-1.72 0.552-0.506 1.16-0.914 1.83-1.23 0.658-0.309 1.38-0.463 2.15-0.463h0.273c0.08 0 0.171 0.014 0.269 0.037 0.241 0.037 0.463 0.148 0.652 0.338 0.19 0.184 0.289 0.434 0.289 0.746 0 0.365-0.174 0.803-0.518 1.31-0.345 0.506-0.965 1.04-1.88 1.62-0.202 0.131-0.548 0.365-1.04 0.719-0.494 0.346-1.08 0.738-1.74 1.18-0.665 0.426-1.38 0.885-2.13 1.36-0.757 0.469-1.48 0.887-2.19 1.26 0.121-0.394 0.294-0.871 0.527-1.45m120 1.02c-0.404 1.02-0.948 1.95-1.63 2.76-0.69 0.814-1.47 1.47-2.35 1.98-0.879 0.506-1.78 0.756-2.7 0.756-0.61 0-1.09-0.131-1.46-0.406-0.358-0.266-0.637-0.596-0.83-0.996s-0.318-0.838-0.382-1.3c-0.061-0.461-0.092-0.891-0.092-1.29 0-1.04 0.2-2.06 0.608-3.06 0.402-0.998 0.94-1.89 1.62-2.68 0.67-0.797 1.45-1.43 2.33-1.91 0.879-0.48 1.8-0.734 2.74-0.734 0.622 0 1.12 0.125 1.49 0.361 0.354 0.234 0.632 0.537 0.82 0.908 0.197 0.369 0.317 0.779 0.366 1.23 0.047 0.438 0.071 0.871 0.071 1.27 2e-3 1.05-0.191 2.09-0.596 3.13" fill="#EA5545"/><path d="m108 46.5h9.87c1.16 0 2.18-0.831 2.39-1.99l2.09-11.4c0.493-2.66 4.31-2.66 4.8 0l2.08 11.4c0.212 1.16 1.22 1.99 2.39 1.99h1.5c1.07 0 2.01-0.688 2.32-1.71l0.635-2.06c0.714-2.29 3.95-2.29 4.66 0l0.635 2.06c0.32 1.02 1.26 1.71 2.33 1.71h2.24c1.13 0 2.1-0.767 2.38-1.86l1.39-5.74c0.606-2.48 4.13-2.48 4.73 0l1.4 5.74c0.266 1.09 1.24 1.86 2.36 1.86h2.97c1.02 0 1.94-0.629 2.28-1.6 0.782-2.12 3.79-2.12 4.58 0 0.35 0.966 1.27 1.6 2.28 1.6h1.05c1.88 0 3.05-2.03 2.12-3.65l-19.8-34.3c-6.21-10.7-21.7-10.7-27.9 0l-19.8 34.3c-0.933 1.62 0.235 3.65 2.12 3.65" fill="#EA5545"/><path d="m123 35.8-3.55 19.3c-0.124 0.662 0.386 1.28 1.06 1.28h7.12c0.67 0 1.17-0.617 1.06-1.28l-3.56-19.3c-0.214-1.18-1.91-1.18-2.13 0" fill="#EB893B"/><path d="m137 45.7-1.74 5.63c-0.254 0.823 0.362 1.67 1.23 1.67h3.48c0.871 0 1.5-0.844 1.23-1.67l-1.73-5.63c-0.376-1.22-2.1-1.22-2.47 0" fill="#56B394"/><path d="m150 43.9-2.69 11c-0.186 0.75 0.395 1.49 1.17 1.49h5.37c0.778 0 1.35-0.736 1.17-1.49l-2.69-11c-0.299-1.22-2.03-1.22-2.33 0" fill="#3788A1"/><path d="m166 51.8c-0.409-1.09-1.96-1.09-2.36 0l-1.07 2.9c-0.302 0.83 0.313 1.7 1.18 1.7h2.13c0.875 0 1.49-0.873 1.18-1.7l-1.07-2.9z" fill="#805F9B"/></svg>